P3
11 11
255
226 226 226 226 226 226 226 226 226 1 130 0 1 130 0 1 130 0 1 130 0 1 130 0 226 226 226 226 226 226 226 226 226 1 130 0 1 130 0 1 130 0 1 130 0 1 130 0 1 130 0 1 130 0 1 130 0 1 130 0 1 130 0 1 130 0 226 226 226 226 226 226 1 130 0 226 226 226 0 0 0 1 130 0 0 0 0 226 226 226 1 130 0 226 226 226 226 226 226 226 226 226 226 226 226 226 226 226 1 130 0 1 130 0 1 130 0 1 130 0 1 130 0 226 226 226 226 226 226 226 226 226 226 226 226 226 226 226 226 226 226 1 130 0 1 130 0 1 130 0 1 130 0 1 130 0 226 226 226 226 226 226 226 226 226 226 226 226 1 130 0 210 188 154 210 188 154 168 105 8 168 105 8 168 105 8 210 188 154 210 188 154 1 130 0 226 226 226 226 226 226 1 130 0 210 188 154 210 188 154 168 105 8 168 105 8 168 105 8 210 188 154 210 188 154 1 130 0 226 226 226 226 226 226 226 226 226 226 226 226 210 188 154 210 188 154 168 105 8 210 188 154 210 188 154 226 226 226 102 65 8 226 226 226 226 226 226 226 226 226 226 226 226 210 188 154 210 188 154 210 188 154 210 188 154 210 188 154 226 226 226 102 65 8 226 226 226 226 226 226 226 226 226 226 226 226 210 188 154 210 188 154 210 188 154 210 188 154 210 188 154 226 226 226 102 65 8 226 226 226 226 226 226 226 226 226 226 226 226 1 130 0 1 130 0 226 226 226 1 130 0 1 130 0 226 226 226 102 65 8 226 226 226 